<?xml version="1.0" encoding="UTF-8"?>
<svg width="553px" height="482px" viewBox="0 0 553 482" version="1.1" xmlns="http://www.w3.org/2000/svg" xmlns:xlink="http://www.w3.org/1999/xlink">
    <!-- Generator: Sketch 60.1 (88133) - https://sketch.com -->
    <title>桌子/电脑</title>
    <desc>Created with Sketch.</desc>
    <defs>
        <path d="M29.126,0.292 C27.912,0.292 26.815,1.061 26.338,2.246 L26.338,2.246 L0.581,66.221 L550.919,66.221 L525.163,2.246 C524.686,1.061 523.588,0.292 522.374,0.292 L522.374,0.292 L29.126,0.292 Z" id="path-1"></path>
        <path d="M29.126,0.253 C27.912,0.253 26.815,1.022 26.338,2.206 L26.338,2.206 L0.581,66.181 L550.919,66.181 L525.163,2.206 C524.686,1.022 523.588,0.253 522.374,0.253 L522.374,0.253 L29.126,0.253 Z" id="path-3"></path>
        <path d="M36.15,1.059 L1.743,7.216 C0.088,8.379 -0.364,10.132 0.326,12.067 L0.326,12.067 C1.441,11.58 5.557,13.942 5.557,13.942 L5.557,13.942 L39.423,6.42 C39.423,6.42 40.192,5.549 39.79,2.888 L39.79,2.888 C39.535,1.183 38.463,0.798 37.548,0.798 L37.548,0.798 C36.796,0.798 36.15,1.059 36.15,1.059" id="path-5"></path>
        <linearGradient x1="0.000988203963%" y1="47.3668236%" x2="98.8645647%" y2="47.3668236%" id="linearGradient-7">
            <stop stop-color="#FFFFFF" offset="0%"></stop>
            <stop stop-color="#CADBE3" offset="100%"></stop>
        </linearGradient>
        <linearGradient x1="50%" y1="31.0962091%" x2="50%" y2="100%" id="linearGradient-8">
            <stop stop-color="#FFFFFF" offset="0%"></stop>
            <stop stop-color="#DFDFDF" offset="100%"></stop>
        </linearGradient>
        <linearGradient x1="50%" y1="0%" x2="50%" y2="100%" id="linearGradient-9">
            <stop stop-color="#FFFFFF" offset="0%"></stop>
            <stop stop-color="#DCDCDC" offset="100%"></stop>
        </linearGradient>
        <path d="M6.605,0.685 C3.02,0.685 0.11,3.596 0.11,7.182 L0.11,7.182 L0.11,158.841 C0.11,162.425 3.02,165.337 6.605,165.337 L6.605,165.337 L225.747,165.337 C229.331,165.337 232.242,162.425 232.242,158.841 L232.242,158.841 L232.242,7.182 C232.242,3.596 229.331,0.685 225.747,0.685 L225.747,0.685 L6.605,0.685 Z" id="path-10"></path>
        <linearGradient x1="50%" y1="76.93332%" x2="50%" y2="100%" id="linearGradient-12">
            <stop stop-color="#EEEEEE" offset="0%"></stop>
            <stop stop-color="#D8D8D8" offset="100%"></stop>
        </linearGradient>
        <path d="M6.605,0.685 C3.02,0.685 0.11,3.596 0.11,7.182 L0.11,7.182 L0.11,158.841 C0.11,162.425 3.02,165.337 6.605,165.337 L6.605,165.337 L225.747,165.337 C229.331,165.337 232.242,162.425 232.242,158.841 L232.242,158.841 L232.242,7.182 C232.242,3.596 229.331,0.685 225.747,0.685 L225.747,0.685 L6.605,0.685 Z" id="path-13"></path>
        <path d="M0.867,7.39 C0.867,11.438 4.142,14.725 8.176,14.725 L8.176,14.725 C12.208,14.725 15.482,11.438 15.482,7.39 L15.482,7.39 C15.482,3.342 12.208,0.055 8.176,0.055 L8.176,0.055 C4.142,0.055 0.867,3.342 0.867,7.39" id="path-15"></path>
        <polygon id="path-17" points="21.914 0.848 0.602 21.56 178.957 21.56 157.757 0.728"></polygon>
        <linearGradient x1="50%" y1="0%" x2="50%" y2="100%" id="linearGradient-19">
            <stop stop-color="#FFFFFF" offset="0%"></stop>
            <stop stop-color="#F8FCFF" offset="100%"></stop>
        </linearGradient>
    </defs>
    <g id="页面-1" stroke="none" stroke-width="1" fill="none" fill-rule="evenodd">
        <g id="桌子/电脑">
            <polygon id="Fill-1" fill="#D5ECF6" points="91.393 480.773 101.251 480.773 101.251 236.522 91.393 236.522"></polygon>
            <polygon id="Fill-2" fill="#D5ECF6" points="472.556 480.773 482.415 480.773 482.415 236.522 472.556 236.522"></polygon>
            <polygon id="Fill-3" fill="#D5ECF6" points="165.5926 235.5317 160.2866 242.5047 473.2636 480.6687 478.5706 473.6957"></polygon>
            <polygon id="Fill-4" fill="#D5ECF6" points="93.4733 474.7908 98.7793 481.7638 411.7573 243.5998 406.4523 236.6278"></polygon>
            <g id="编组" transform="translate(0.000000, 178.764000)">
                <mask id="mask-2" fill="white">
                    <use xlink:href="#path-1"></use>
                </mask>
                <g id="Clip-6"></g>
                <polygon id="Fill-5" fill="#D5DFF1" mask="url(#mask-2)" points="-7 74.261 558.5 74.261 558.5 -7.747 -7 -7.747"></polygon>
            </g>
            <polygon id="Fill-7" fill="#CEE3F5" points="0.581 244.985 550.919 244.985 550.919 236.945 0.581 236.945"></polygon>
            <g id="编组" transform="translate(0.000000, 170.764000)">
                <mask id="mask-4" fill="white">
                    <use xlink:href="#path-3"></use>
                </mask>
                <g id="Clip-9"></g>
                <polygon id="Fill-8" fill="#EAF5FC" mask="url(#mask-4)" points="-7 74.221 558.5 74.221 558.5 -7.787 -7 -7.787"></polygon>
            </g>
            <polygon id="Fill-10" fill="#CEE3F5" points="447.0013 232.292 336.4173 174.58 440.3623 152.568 552.2663 203.687"></polygon>
            <polygon id="Fill-11" fill="#FFFFFF" points="446.4808 227.4936 345.1678 175.2996 440.3978 155.3926 542.9188 201.6236"></polygon>
            <polygon id="Fill-12" fill="#F0F5FB" points="367.9183 182.1709 448.3503 161.7789 459.4203 166.5049 379.0563 188.0019"></polygon>
            <g id="编组" transform="translate(368.000000, 155.764000)">
                <mask id="mask-6" fill="white">
                    <use xlink:href="#path-5"></use>
                </mask>
                <g id="Clip-14"></g>
                <path d="M36.15,1.059 L1.743,7.216 C0.088,8.379 -0.364,10.132 0.326,12.067 L0.326,12.067 C1.441,11.58 5.557,13.942 5.557,13.942 L5.557,13.942 L39.423,6.42 C39.423,6.42 40.192,5.549 39.79,2.888 L39.79,2.888 C39.535,1.183 38.463,0.798 37.548,0.798 L37.548,0.798 C36.796,0.798 36.15,1.059 36.15,1.059" id="Fill-13" fill="url(#linearGradient-7)" mask="url(#mask-6)"></path>
            </g>
            <g id="编组" transform="translate(367.000000, 166.764000)" fill="#CEE3F5">
                <path d="M0.5404,1.1647 L3.3934,0.4917 C5.8224,0.0357 6.6634,1.4067 6.4944,2.7317 L0.3834,3.7507 L0.5404,1.1647 Z" id="Fill-15"></path>
            </g>
            <g id="mac" transform="translate(94.000000, 0.000000)">
                <polygon id="Fill-14" fill="url(#linearGradient-8)" points="99.038 191.332 133.313 191.332 133.313 147.807 99.038 147.807"></polygon>
                <polygon id="Fill-16" fill="url(#linearGradient-9)" points="70.13 196.757 162.223 196.757 162.223 190.47 70.13 190.47"></polygon>
                <g id="编组-2">
                    <g id="编组">
                        <g>
                            <mask id="mask-11" fill="white">
                                <use xlink:href="#path-10"></use>
                            </mask>
                            <g id="Clip-19"></g>
                            <path d="M6.605,0.685 C3.02,0.685 0.11,3.596 0.11,7.182 L0.11,7.182 L0.11,158.841 C0.11,162.425 3.02,165.337 6.605,165.337 L6.605,165.337 L225.747,165.337 C229.331,165.337 232.242,162.425 232.242,158.841 L232.242,158.841 L232.242,7.182 C232.242,3.596 229.331,0.685 225.747,0.685 L225.747,0.685 L6.605,0.685 Z" id="Fill-18" mask="url(#mask-11)"></path>
                        </g>
                        <mask id="mask-14" fill="white">
                            <use xlink:href="#path-13"></use>
                        </mask>
                        <use id="Clip-21" fill="url(#linearGradient-12)" xlink:href="#path-13"></use>
                        <polygon id="Fill-20" fill="#8A9CAC" mask="url(#mask-14)" points="-14.211 129.486 257.003 129.486 257.003 -10.299 -14.211 -10.299"></polygon>
                        <polygon id="Fill-22" fill="#FFFFFF" mask="url(#mask-14)" points="11.155 120.685 219.73 120.685 219.73 12.807 11.155 12.807"></polygon>
                    </g>
                    <g id="编组" transform="translate(108.000000, 138.000000)">
                        <mask id="mask-16" fill="white">
                            <use xlink:href="#path-15"></use>
                        </mask>
                        <g id="Clip-24"></g>
                        <path d="M0.867,7.39 C0.867,11.438 4.142,14.725 8.176,14.725 L8.176,14.725 C12.208,14.725 15.482,11.438 15.482,7.39 L15.482,7.39 C15.482,3.342 12.208,0.055 8.176,0.055 L8.176,0.055 C4.142,0.055 0.867,3.342 0.867,7.39" id="Fill-23" mask="url(#mask-16)"></path>
                    </g>
                    <g id="编组" transform="translate(28.000000, 200.000000)">
                        <mask id="mask-18" fill="white">
                            <use xlink:href="#path-17"></use>
                        </mask>
                        <use id="Clip-26" fill="#D8D8D8" xlink:href="#path-17"></use>
                        <polygon id="Fill-25" fill="url(#linearGradient-19)" mask="url(#mask-18)" points="21.914 0.848 0.602 21.56 178.957 21.56 157.757 0.728"></polygon>
                    </g>
                </g>
            </g>
        </g>
    </g>
</svg>