<?xml version="1.0" encoding="UTF-8"?>
<svg width="189px" height="422px" viewBox="0 0 189 422" version="1.1" xmlns="http://www.w3.org/2000/svg" xmlns:xlink="http://www.w3.org/1999/xlink">
    <!-- Generator: Sketch 60.1 (88133) - https://sketch.com -->
    <title>植物1</title>
    <desc>Created with Sketch.</desc>
    <defs>
        <path d="M0.162,2.195 L0.162,2.199 L23.779,107.629 C53.191,117.654 82.628,118 112.097,107.524 L112.097,107.524 L131.265,0.391 C86.574,14.824 42.976,13.992 0.162,2.195" id="path-1"></path>
        <linearGradient x1="7.93269414e-05%" y1="50.0001395%" x2="100.002421%" y2="50.0001395%" id="linearGradient-3">
            <stop stop-color="#FAD5C6" offset="0%"></stop>
            <stop stop-color="#FCE8DF" offset="100%"></stop>
        </linearGradient>
        <path d="M36.947,34.417 C60.005,91.686 108.988,169.816 132.495,137.962 L132.495,137.962 C122.55,71.427 49.902,12.835 0.471,0.483 L0.471,0.483 C-0.979,1.895 25.743,6.592 36.947,34.417" id="path-4"></path>
        <linearGradient x1="18.0853214%" y1="55.8842144%" x2="82.5476602%" y2="42.4673123%" id="linearGradient-6">
            <stop stop-color="#FFFFFF" offset="0%"></stop>
            <stop stop-color="#2FA8B3" offset="100%"></stop>
        </linearGradient>
        <path d="M1.174,0.771 C1.089,0.771 1.009,0.82 0.968,0.898 L0.968,0.898 C1.869,1.297 2.878,1.754 3.971,2.284 L3.971,2.284 C59.463,23.217 96.191,68.993 126.248,137.262 L126.248,137.262 C126.3,137.383 126.44,137.436 126.559,137.385 L126.559,137.385 C126.678,137.331 126.732,137.192 126.679,137.074 L126.679,137.074 C96.046,67.495 58.472,21.251 1.257,0.785 L1.257,0.785 C1.231,0.775 1.204,0.771 1.177,0.771 L1.177,0.771 C1.176,0.771 1.175,0.771 1.174,0.771" id="path-7"></path>
        <linearGradient x1="14.3465401%" y1="57.8279515%" x2="80.1544172%" y2="44.2562577%" id="linearGradient-9">
            <stop stop-color="#E0F1F6" offset="0%"></stop>
            <stop stop-color="#2796A0" offset="100%"></stop>
        </linearGradient>
        <path d="M50.666,279.479 C55.534,317.694 73.08,332.051 88.843,289.337 L88.843,289.337 C96.192,195.81 91.943,88.613 0.184,0.64 L0.184,0.64 C59.329,86.314 55.867,192.374 50.666,279.479" id="path-10"></path>
        <path d="M39.73,43.025 C13.167,93.787 -16.284,172.708 12.555,164.52 L12.555,164.52 C49.936,114.84 58.119,35.837 46.636,0.359 L46.636,0.359 C45.201,0.497 52.635,18.36 39.73,43.025" id="path-12"></path>
        <linearGradient x1="45.5712119%" y1="37.7548755%" x2="55.2402203%" y2="64.2176562%" id="linearGradient-14">
            <stop stop-color="#FFFFFF" offset="0%"></stop>
            <stop stop-color="#2FA8B3" offset="100%"></stop>
        </linearGradient>
        <path d="M36.881,0.445 C36.983,1.206 37.09,2.065 37.184,3.018 L37.184,3.018 C45.695,47.542 31.548,98.214 0.879,160.146 L0.879,160.146 C0.825,160.254 0.846,160.366 0.924,160.398 L0.924,160.398 C1.004,160.428 1.11,160.365 1.164,160.257 L1.164,160.257 C32.422,97.139 46.531,45.692 37.063,0.528 L37.063,0.528 C37.049,0.464 37.005,0.428 36.949,0.428 L36.949,0.428 C36.927,0.428 36.905,0.434 36.881,0.445" id="path-15"></path>
        <linearGradient x1="45.6331675%" y1="36.1869012%" x2="53.1719415%" y2="62.1884665%" id="linearGradient-17">
            <stop stop-color="#E0F1F6" offset="0%"></stop>
            <stop stop-color="#2796A0" offset="100%"></stop>
        </linearGradient>
    </defs>
    <g id="页面-1" stroke="none" stroke-width="1" fill="none" fill-rule="evenodd">
        <g id="植物1" transform="translate(0.000000, -1.000000)">
            <g id="编组" transform="translate(57.000000, 306.878000)">
                <mask id="mask-2" fill="white">
                    <use xlink:href="#path-1"></use>
                </mask>
                <g id="Clip-2"></g>
                <path d="M0.162,2.195 L0.162,2.199 L23.779,107.629 C53.191,117.654 82.628,118 112.097,107.524 L112.097,107.524 L131.265,0.391 C86.574,14.824 42.976,13.992 0.162,2.195" id="Fill-1" fill="url(#linearGradient-3)" mask="url(#mask-2)"></path>
            </g>
            <path d="M123.6239,300.05 C159.3799,300.05 188.4129,304.168 188.4129,309.24 C188.4129,314.313 159.3799,318.431 123.6239,318.431 C87.8679,318.431 58.8349,314.313 58.8349,309.24 C58.8349,304.168 87.8679,300.05 123.6239,300.05" id="Fill-3" fill="#F3A789"></path>
            <g id="编组" transform="translate(0.000000, 171.878000)">
                <mask id="mask-5" fill="white">
                    <use xlink:href="#path-4"></use>
                </mask>
                <g id="Clip-6"></g>
                <path d="M36.947,34.417 C60.005,91.686 108.988,169.816 132.495,137.962 L132.495,137.962 C122.55,71.427 49.902,12.835 0.471,0.483 L0.471,0.483 C-0.979,1.895 25.743,6.592 36.947,34.417" id="Fill-5" fill="url(#linearGradient-6)" mask="url(#mask-5)"></path>
            </g>
            <g id="编组" transform="translate(4.000000, 173.878000)">
                <mask id="mask-8" fill="white">
                    <use xlink:href="#path-7"></use>
                </mask>
                <g id="Clip-8"></g>
                <path d="M1.174,0.771 C1.089,0.771 1.009,0.82 0.968,0.898 L0.968,0.898 C1.869,1.297 2.878,1.754 3.971,2.284 L3.971,2.284 C59.463,23.217 96.191,68.993 126.248,137.262 L126.248,137.262 C126.3,137.383 126.44,137.436 126.559,137.385 L126.559,137.385 C126.678,137.331 126.732,137.192 126.679,137.074 L126.679,137.074 C96.046,67.495 58.472,21.251 1.257,0.785 L1.257,0.785 C1.231,0.775 1.204,0.771 1.177,0.771 L1.177,0.771 C1.176,0.771 1.175,0.771 1.174,0.771" id="Fill-7" fill="url(#linearGradient-9)" mask="url(#mask-8)"></path>
            </g>
            <g id="编组" transform="translate(59.000000, 0.878000)">
                <mask id="mask-11" fill="white">
                    <use xlink:href="#path-10"></use>
                </mask>
                <g id="Clip-10"></g>
                <path d="M50.666,279.479 C55.534,317.694 73.08,332.051 88.843,289.337 L88.843,289.337 C96.192,195.81 91.943,88.613 0.184,0.64 L0.184,0.64 C59.329,86.314 55.867,192.374 50.666,279.479" id="Fill-9" fill="#9CD6DB" mask="url(#mask-11)"></path>
            </g>
            <g id="编组" transform="translate(126.000000, 151.878000)">
                <mask id="mask-13" fill="white">
                    <use xlink:href="#path-12"></use>
                </mask>
                <g id="Clip-12"></g>
                <path d="M39.73,43.025 C13.167,93.787 -16.284,172.708 12.555,164.52 L12.555,164.52 C49.936,114.84 58.119,35.837 46.636,0.359 L46.636,0.359 C45.201,0.497 52.635,18.36 39.73,43.025" id="Fill-11" fill="url(#linearGradient-14)" mask="url(#mask-13)"></path>
            </g>
            <g id="编组" transform="translate(136.000000, 155.878000)">
                <mask id="mask-16" fill="white">
                    <use xlink:href="#path-15"></use>
                </mask>
                <g id="Clip-14"></g>
                <path d="M36.881,0.445 C36.983,1.206 37.09,2.065 37.184,3.018 L37.184,3.018 C45.695,47.542 31.548,98.214 0.879,160.146 L0.879,160.146 C0.825,160.254 0.846,160.366 0.924,160.398 L0.924,160.398 C1.004,160.428 1.11,160.365 1.164,160.257 L1.164,160.257 C32.422,97.139 46.531,45.692 37.063,0.528 L37.063,0.528 C37.049,0.464 37.005,0.428 36.949,0.428 L36.949,0.428 C36.927,0.428 36.905,0.434 36.881,0.445" id="Fill-13" fill="url(#linearGradient-17)" mask="url(#mask-16)"></path>
            </g>
        </g>
    </g>
</svg>